<svg height="10.101954in" viewBox="0 0 192.52687 256.58962" width="7.579798in" xml:space="preserve" xmlns="http://www.w3.org/2000/svg"><g transform="translate(-12.852982 -10.627524)"><path d="m13.448243 72.711105h18.195532v79.809303h-18.195532z" fill="none" stroke="#000" stroke-width=".256055"/><path d="m31.588909 72.694687h6.07549v79.884674h-6.07549z" fill="none" stroke="#000" stroke-width=".14803"/><path d="m37.760231 72.675499h6.372034v79.920486h-6.372034z" fill="none" stroke="#000" stroke-width=".151633"/><path d="m44.146065 72.665352h7.461556v79.940659h-7.461556z" fill="none" stroke="#000" stroke-width=".164106"/><path d="m51.585339 72.694672h46.765999v79.727913h-46.765999z" fill="none" stroke="#000" stroke-width=".25584"/><path d="m98.342598 72.710999h18.163099v79.580978h-18.163099z" fill="none" stroke="#000" stroke-width=".255838"/><path d="m116.74229 72.695114h21.182508v79.335213h-21.182508z" fill="none" stroke="#000" stroke-width=".256713"/><path d="m137.91638 72.661942h25.869066v79.368896h-25.869066z" fill="none" stroke="#000" stroke-width=".255675"/><path d="m163.77667 72.645729h19.860916v79.384995h-19.860916z" fill="none" stroke="#000" stroke-width=".255909"/><path d="m183.49838 72.629486h6.800073v79.662376h-6.800073z" fill="none" stroke="#000" stroke-width=".256067"/><path d="m190.55118 72.629494h5.8858v79.662354h-5.8858z" fill="none" stroke="#000" stroke-width=".256092"/><path d="m196.42847 72.645813h5.885813v79.776642h-5.885813z" fill="none" stroke="#000" stroke-width=".256079"/><path d="m13.445225 67.001282h188.87276v5.74678h-188.87276z" fill="#f00" stroke="#f00" stroke-width=".264504"/><rect fill="none" height="8.464168" ry="1.431472" stroke="#000" stroke-width=".264583" width="188.35149" x="13.841405" y="55.769665"/><path d="m33.745548 55.801781h22.284792v8.42414h-22.284792z" fill="none" stroke="#000" stroke-width=".264583"/><path d="m56.035183 55.781212h27.953104v8.439335h-27.953104z" fill="none" stroke="#000" stroke-width=".264583"/><path d="m84.041229 55.804302h27.636635v8.450299h-27.636635z" fill="none" stroke="#000" stroke-width=".264583"/><path d="m111.67786 55.850475h27.521194v8.404123h-27.521194z" fill="none" stroke="#000" stroke-width=".264583"/><path d="m139.17596 55.873562h26.851637v8.334858h-26.851637z" fill="none" stroke="#000" stroke-width=".264583"/><rect fill="none" height="3.712765" ry="1.534631" stroke="#59f" stroke-width=".264583" width="86.41256" x="113.1786" y="22.71884"/><rect fill="#59f" height="3.424162" ry="1.534631" stroke="#59f" stroke-width=".265" width="86.320206" x="113.33816" y="27.696268"/><rect fill="none" height="18.28496" ry="1.534631" stroke="#59f" stroke-width=".264583" width="86.461746" x="113.23615" y="27.688654"/><rect fill="none" height="33.247082" ry="1.534631" stroke="#000" stroke-width=".264583" width="94.01535" x="15.515304" y="179.90366"/><rect fill="none" height="33.431793" ry="1.534631" stroke="#000" stroke-width=".264583" width="86.442406" x="112.97926" y="179.83929"/><rect fill="none" height="37.218258" ry="1.534631" stroke="#000" stroke-width=".264583" width="86.165344" x="113.59418" y="229.86662"/><path d="m187.38423 31.122961h12.236767v6.557063h-12.236767z" fill="none" stroke="#59f" stroke-width=".264583"/><path d="m142.40833 31.122961h44.929733v6.557063h-44.929733z" fill="none" stroke="#59f" stroke-width=".264583"/><path d="m131.69537 31.142088h10.712952v6.537936h-10.712952z" fill="none" stroke="#59f" stroke-width=".264583"/><path d="m121.85978 31.122961h9.85192v6.535135h-9.85192z" fill="none" stroke="#59f" stroke-width=".264583"/><path d="m113.26815 31.136484h8.426052v6.540739h-8.426052z" fill="none" stroke="#59f" stroke-width=".264583"/><path d="m113.27095 31.134504h29.102743v2.539707h-29.102743z" fill="#9fc5ff" stroke="#59f" stroke-width=".264583"/><path d="m113.31713 37.7262h86.369675v4.337791h-86.369675z" fill="#59f" stroke="#59f" stroke-width=".264583"/><path d="m156.49216 42.089882h.011544v3.86151h-.011544z" fill="none" stroke="#59f" stroke-width=".264583"/><g font-family="Arial"><text font-size="4.9389" stroke="#000" stroke-width=".264583" x="136.74539" y="15.01979"><tspan font-family="Arial" stroke-width=".264583" x="136.74539" y="15.01979">ESTADO DE CUENTA</tspan></text><text font-size="4.9389" stroke="#000" stroke-width=".264583" x="134.39447" y="20.244064"><tspan font-family="Arial" stroke-width=".264583" x="134.39447" y="20.244064">TARJETA DE CREDITO</tspan></text><text fill="#025" font-size="3.175" stroke="#000" stroke-width=".264583" x="114.30991" y="25.443251"><tspan fill="#003380" font-family="Arial" stroke="#003380" stroke-width=".264583" x="114.30991" y="25.443251">INTERESES DE MORA</tspan></text><text fill="#003380" font-size="3.175" stroke="#003380" stroke-width=".264583" x="162.93378" y="25.697222"><tspan font-family="Arial" stroke-width=".264583" x="162.93378" y="25.697222">E.A</tspan></text><text fill="#003380" font-size="2.82223" stroke="#003380" stroke-width=".264583" x="115.16418" y="30.291784"><tspan font-family="Arial" stroke-width=".264583" x="115.16418" y="30.291784">FECHA FACTURACIÓN</tspan></text><text fill="#003380" font-size="2.82223" stroke="#003380" stroke-width=".264583" x="153.35214" y="30.222519"><tspan font-family="Arial" stroke-width=".264583" x="153.35214" y="30.222519">TARJETA NÚMERO</tspan></text><text fill="#003380" font-size="2.82223" stroke="#003380" stroke-width=".264583" x="188.33086" y="30.268696"><tspan font-family="Arial" stroke-width=".264583" x="188.33086" y="30.268696">PAGINA</tspan></text><text fill="#003380" font-size="2.82223" stroke="#003380" stroke-width=".264583" x="167.29747" y="41.189438"><tspan font-family="Arial" stroke-width=".264583" x="167.29747" y="41.189438">CUPO DISPONIBLE</tspan></text><text style="font-size:2.82223;letter-spacing:.0714375;word-spacing:-.463021;fill:#003380;stroke:#003380;stroke-width:.264583" x="127.53949" y="41.131714"><tspan font-family="Arial" letter-spacing=".0714375" stroke-width=".264583" word-spacing="-.463021" x="127.53949" y="41.131714">CUPO TOTAL</tspan></text><text style="font-size:2.11667;letter-spacing:.0714375;word-spacing:-.463021;fill:#003380;stroke:#003380;stroke-width:.264583" x="116.69955" y="33.120094"><tspan font-family="Arial" font-size="2.11667" stroke-width=".264583" x="116.69955" y="33.120094">DIA</tspan></text><text style="font-size:2.11667;letter-spacing:.0714375;word-spacing:-.463021;fill:#003380;stroke:#003380;stroke-width:.264583" x="125.1614" y="33.062374"><tspan font-family="Arial" stroke-width=".264583" x="125.1614" y="33.062374">MES</tspan></text><text font-size="2.11667" letter-spacing=".0714375" stroke="#003380" stroke-width=".264583" word-spacing="-.463021" x="136.0706" y="33.062374"><tspan font-family="Arial" stroke-width=".264583" x="136.0706" y="33.062374">AÑO</tspan></text><text style="font-size:2.42079;letter-spacing:.0817015;word-spacing:-.529547;fill:#003380;stroke:#003380;stroke-width:.302598" transform="scale(1.1758832 .85042459)" x="12.81804" y="71.577034"><tspan font-family="Arial" stroke-width=".302598" x="12.81804" y="71.577034">PAGUE HASTA</tspan></text><text style="font-size:2.11667;letter-spacing:.0714375;word-spacing:-.463021;fill:#003380;stroke:#003380;stroke-width:.264583" x="35.06002" y="58.609829"><tspan font-family="Arial" stroke-width=".264583" x="35.06002" y="58.609829">DIA</tspan></text><text style="font-size:2.11667;letter-spacing:.0714375;word-spacing:-.463021;fill:#003380;stroke:#003380;stroke-width:.264583" x="40.699879" y="58.568779"><tspan font-family="Arial" stroke-width=".264583" x="40.699879" y="58.568779">MES</tspan></text><text style="font-size:2.11667;letter-spacing:.0714375;word-spacing:-.463021;fill:#003380;stroke:#003380;stroke-width:.264583" x="48.048843" y="58.473621"><tspan font-family="Arial" stroke-width=".264583" x="48.048843" y="58.473621">AÑO</tspan></text><text style="font-size:2.11667;letter-spacing:.0714375;word-spacing:-.463021;fill:#003380;stroke:#003380;stroke-width:.264583" x="60.933224" y="58.547325"><tspan font-family="Arial" stroke-width=".264583" x="60.933224" y="58.547325">PAGO MINIMO</tspan></text><text style="font-size:2.11667;letter-spacing:.0714375;word-spacing:-.463021;fill:#003380;stroke:#003380;stroke-width:.264583" x="85.740601" xml:space="preserve" y="58.696583"><tspan font-family="Arial" stroke-width=".264583" x="85.740601" y="58.696583">PAGO MINIMO REDUCIDO </tspan></text><text style="font-size:2.11667;letter-spacing:.0714375;word-spacing:-.463021;fill:#003380;stroke:#003380;stroke-width:.264583" x="121.09681" y="58.658806"><tspan font-family="Arial" stroke-width=".264583" x="121.09681" y="58.658806">PAGO TOTAL</tspan></text><text style="font-size:2.11667;letter-spacing:.0714375;word-spacing:-.463021;fill:#003380;stroke:#003380;stroke-width:.264583" x="144.91904" y="58.405518"><tspan font-family="Arial" stroke-width=".264583" x="144.91904" y="58.405518">SALDO A SU FAVOR</tspan></text><text style="font-size:2.11667;letter-spacing:.0714375;word-spacing:-.463021;fill:#003380;stroke:#003380;stroke-width:.264583" x="167.40862" y="58.400394"><tspan font-family="Arial" stroke-width=".264583" x="167.40862" y="58.400394">CUENTA PARA DEBITO AUTOMATICO</tspan></text><text font-size="2.82223" letter-spacing=".0714375" stroke="#000" stroke-width=".264583" word-spacing="-.463021" x="14.189972" y="33.505302"><tspan font-family="Arial" stroke-width=".264583" x="14.189972" y="33.505302">0066</tspan></text><text font-size="2.82223" letter-spacing=".0714375" stroke="#000" stroke-width=".264583" word-spacing="-.463021" x="30.026052" y="33.477291"><tspan font-family="Arial" stroke-width=".264583" x="30.026052" y="33.477291">CALLE CIEN</tspan></text><text font-size="2.82223" letter-spacing=".0714375" stroke="#000" stroke-width=".264583" word-spacing="-.463021" x="14.619084" y="41.36084"><tspan font-family="Arial" stroke-width=".264583" x="14.619084" y="41.36084">JOSE Y BOCANEGRA V</tspan></text><text font-size="2.82223" letter-spacing=".0714375" stroke="#000" stroke-width=".264583" word-spacing="-.463021" x="14.562665" y="45.004307"><tspan font-family="Arial" stroke-width=".264583" x="14.562665" y="45.004307">CL 148 56A 93 AP 204</tspan></text><text font-size="2.82223" letter-spacing=".0714375" stroke="#000" stroke-width=".264583" word-spacing="-.463021" x="14.218943" y="49.199574"><tspan font-family="Arial" stroke-width=".264583" x="14.218943" y="49.199574">11001</tspan></text><text font-size="2.82223" letter-spacing=".0714375" stroke="#000" stroke-width=".264583" word-spacing="-.463021" x="26.451172" y="49.152435"><tspan font-family="Arial" stroke-width=".264583" x="26.451172" y="49.152435">BOGOTA D.C.</tspan></text><text font-size="2.82223" letter-spacing=".0714375" stroke="#000" stroke-width=".264583" word-spacing="-.463021" x="14.593575" y="235.74336"><tspan font-family="Arial" stroke-width=".264583" x="14.593575" y="235.74336">0066</tspan></text><text font-size="2.82223" letter-spacing=".0714375" stroke="#000" stroke-width=".264583" word-spacing="-.463021" x="30.337299" y="235.53064"><tspan font-family="Arial" stroke-width=".264583" x="30.337299" y="235.53064">CALLE CIEN</tspan></text><text font-size="2.82223" letter-spacing=".0714375" stroke="#000" stroke-width=".264583" word-spacing="-.463021" x="15.115039" y="243.4142"><tspan font-family="Arial" stroke-width=".264583" x="15.115039" y="243.4142">JOSE Y BOCANEGRA V</tspan></text><text font-size="2.82223" letter-spacing=".0714375" stroke="#000" stroke-width=".264583" word-spacing="-.463021" x="14.596854" y="247.05766"><tspan font-family="Arial" stroke-width=".264583" x="14.596854" y="247.05766">CL 148 56A 93 AP 204</tspan></text><text font-size="2.82223" letter-spacing=".0714375" stroke="#000" stroke-width=".264583" word-spacing="-.463021" x="14.345487" y="251.02205"><tspan font-family="Arial" stroke-width=".264583" x="14.345487" y="251.02205">11001</tspan></text><text font-size="2.82223" letter-spacing=".0714375" stroke="#000" stroke-width=".264583" word-spacing="-.463021" x="26.808598" y="251.06726"><tspan font-family="Arial" stroke-width=".264583" x="26.808598" y="251.06726">BOGOTA D.C.</tspan></text><text font-size="2.82223" letter-spacing=".0714375" stroke="#000" stroke-width=".264583" word-spacing="-.463021" x="154.36803" y="25.558693"><tspan font-family="Arial" stroke-width=".264583" x="154.36803" y="25.558693">44.03</tspan></text><text font-size="2.82223" letter-spacing=".0714375" stroke="#000" stroke-width=".264583" word-spacing="-.463021" x="153.35216" y="35.648258"><tspan font-family="Arial" stroke-width=".264583" x="153.35216" y="35.648258">5229733312347890</tspan></text><text font-size="2.82223" letter-spacing=".0714375" stroke="#000" stroke-width=".264583" word-spacing="-.463021" x="127.147" y="45.183701"><tspan font-family="Arial" stroke-width=".264583" x="127.147" y="45.183701">$ 18.929.000</tspan></text><text font-size="2.82223" letter-spacing=".0714375" stroke="#000" stroke-width=".264583" word-spacing="-.463021" x="168.61348" y="45.183704"><tspan font-family="Arial" stroke-width=".264583" x="168.61348" y="45.183704">$18.793.903.00</tspan></text><text font-size="2.82223" letter-spacing=".0714375" stroke="#000" stroke-width=".264583" word-spacing="-.463021" x="35.348114" y="62.315186"><tspan font-family="Arial" stroke-width=".264583" x="35.348114" y="62.315186">16</tspan></text><text font-size="2.82223" letter-spacing=".0714375" stroke="#000" stroke-width=".264583" word-spacing="-.463021" x="40.91238" y="62.338272"><tspan font-family="Arial" stroke-width=".264583" x="40.91238" y="62.338272">08</tspan></text><text font-size="2.82223" letter-spacing=".0714375" stroke="#000" stroke-width=".264583" word-spacing="-.463021" x="46.592091" y="62.292095"><tspan font-family="Arial" stroke-width=".264583" x="46.592091" y="62.292095">2023</tspan></text><text font-size="2.82223" letter-spacing=".0714375" stroke="#000" stroke-width=".264583" word-spacing="-.463021" x="63.054008" y="62.384449"><tspan font-family="Arial" stroke-width=".264583" x="63.054008" y="62.384449">$132.156.00</tspan></text><text font-size="2.82223" letter-spacing=".0714375" stroke="#000" stroke-width=".264583" word-spacing="-.463021" x="90.967705" y="62.338272"><tspan font-family="Arial" stroke-width=".264583" x="90.967705" y="62.338272">$132.156.00</tspan></text><text font-size="2.82223" letter-spacing=".0714375" stroke="#000" stroke-width=".264583" word-spacing="-.463021" x="118.55815" y="62.546066"><tspan font-family="Arial" stroke-width=".264583" x="118.55815" y="62.546066">$132.156.10</tspan></text><text font-size="2.82223" letter-spacing=".0714375" stroke="#000" stroke-width=".264583" word-spacing="-.463021" x="149.09735" y="62.407539"><tspan font-family="Arial" stroke-width=".264583" x="149.09735" y="62.407539">$0.00</tspan></text><text font-size="2.82223" letter-spacing=".0714375" stroke="#000" stroke-width=".264583" word-spacing="-.463021" x="185.3802" y="62.46096"><tspan font-family="Arial" stroke-width=".264583" x="185.3802" y="62.46096">0-0-0</tspan></text><text font-size="2.11667" letter-spacing=".0714375" stroke="#000" stroke-width=".264583" word-spacing="-.463021" x="116.94199" y="36.433258"><tspan font-family="Arial" stroke-width=".264583" x="116.94199" y="36.433258">26</tspan></text><text font-size="2.11667" letter-spacing=".0714375" stroke="#000" stroke-width=".264583" word-spacing="-.463021" x="125.71552" y="35.994579"><tspan font-family="Arial" stroke-width=".264583" x="125.71552" y="35.994579">07</tspan></text><text font-size="2.11667" letter-spacing=".0714375" stroke="#000" stroke-width=".264583" word-spacing="-.463021" x="134.32744" y="36.04076"><tspan font-family="Arial" stroke-width=".264583" x="134.32744" y="36.04076">2023</tspan></text><text font-size="2.22426" letter-spacing=".0750688" stroke="#000" stroke-width=".278032" transform="scale(1.0542258 .94856337)" word-spacing="-.486557" x="21.338243" y="73.387764"><tspan font-family="Arial" stroke-width=".278032" text-anchor="middle" x="21.338243" y="73.387764">COMPROBANTE</tspan><tspan font-family="Arial" stroke-width=".278032" text-anchor="middle" x="21.375778" y="76.168091">NUMERO</tspan></text><text style="font-size:2.11667;letter-spacing:.0714375;word-spacing:-.463021;text-anchor:middle;stroke:#000;stroke-width:.264583" x="34.44767" y="70.788574"><tspan font-family="Arial" stroke-width=".264583" x="34.483387" y="70.788574">DIA</tspan></text><text style="font-size:2.11667;letter-spacing:.0714375;word-spacing:-.463021;text-anchor:middle;stroke:#000;stroke-width:.264583" x="40.681499" y="70.811661"><tspan font-family="Arial" stroke-width=".264583" x="40.717216" y="70.811661">MES</tspan></text><text style="font-size:2.11667;letter-spacing:.0714375;word-spacing:-.463021;text-anchor:middle;stroke:#000;stroke-width:.264583" x="47.377087" y="70.950195"><tspan font-family="Arial" stroke-width=".264583" x="47.412804" y="70.950195">AÑO</tspan></text><text style="font-size:2.61868;letter-spacing:.0883803;word-spacing:-.572836;text-anchor:middle;stroke:#000;stroke-width:.327334" transform="scale(.99927481 1.0007257)" x="74.767136" y="70.959679"><tspan font-family="Arial" stroke-width=".327334" x="74.811325" y="70.959679">DETALLE</tspan></text><text style="font-size:2.11667;letter-spacing:.0714375;word-spacing:-.463021;text-anchor:middle;stroke:#000;stroke-width:.264583" x="106.80624" y="69.518715"><tspan font-family="Arial" stroke-width=".264583" x="106.80624" y="69.518715">TASAS</tspan><tspan font-family="Arial" stroke-width=".264583" x="106.84196" y="72.164551">INTERESES EA</tspan></text><text style="font-size:2.46498;letter-spacing:.0831929;word-spacing:-.539214;text-anchor:middle;stroke:#000;stroke-width:.308122" transform="scale(1.0662823 .93783796)" x="119.22221" y="75.331856"><tspan font-family="Arial" stroke-width=".308122" x="119.26381" y="75.331856">VALOT COMPRA</tspan></text><text style="font-size:2.5537;letter-spacing:.0861872;word-spacing:-.55862;text-anchor:middle;stroke:#000;stroke-width:.319211" transform="scale(1.0534838 .94923148)" x="143.36465" y="74.396103"><tspan font-family="Arial" stroke-width=".319211" x="143.40775" y="74.396103">CARGOS Y ABONOS</tspan></text><text style="font-size:2.27327;letter-spacing:.0767227;word-spacing:-.497277;text-anchor:middle;stroke:#000;stroke-width:.284158" transform="scale(1.0790401 .92674958)" x="161.32607" y="75.140999"><tspan font-family="Arial" stroke-width=".284158" x="161.32607" y="75.140999">SALDO CREDITO</tspan><tspan font-family="Arial" stroke-width=".284158" x="161.36443" y="77.98259">DIFERIDO</tspan></text><text style="font-size:1.9171;letter-spacing:.064702;word-spacing:-.419365;text-anchor:middle;stroke:#000;stroke-width:.239637" transform="scale(.99444788 1.0055831)" x="193.67731" y="69.331024"><tspan font-family="Arial" stroke-width=".239637" x="193.70966" y="69.331024">CUOTAS</tspan></text><text style="font-size:1.62859;letter-spacing:.0549649;word-spacing:-.356254;text-anchor:middle;stroke:#000;stroke-width:.203573" transform="scale(1.110044 .90086522)" x="168.11177" y="79.620262"><tspan font-family="Arial" stroke-width=".203573" x="168.13925" y="79.620262">TOTAL</tspan></text><text style="font-size:1.64855;letter-spacing:.0556384;word-spacing:-.36062;text-anchor:middle;stroke:#000;stroke-width:.206068" transform="scale(1.151392 .86851394)" x="167.36488" y="82.611679"><tspan font-family="Arial" stroke-width=".206068" x="167.3927" y="82.611679">FACT</tspan></text><text style="font-size:1.71277;letter-spacing:.0578061;word-spacing:-.374669;text-anchor:middle;stroke:#000;stroke-width:.214096" transform="scale(1.0736776 .93137832)" x="185.32649" y="77.097153"><tspan font-family="Arial" stroke-width=".214096" x="185.35539" y="77.097153">PEND</tspan></text></g><text style="font-size:2.11667;font-family:Gadugi;letter-spacing:.0714375;word-spacing:-.463021;text-anchor:middle;stroke:#000;stroke-width:.264999" x="19.301777" y="75.590919"><tspan stroke-width=".265" x="19.337496" y="75.590919">0710</tspan></text><text style="font-size:2.11667;font-family:Gadugi;letter-spacing:.0714375;word-spacing:-.463021;text-anchor:middle;stroke:#000;stroke-width:.264999" x="34.032082" y="75.590935"><tspan stroke-width=".265" x="34.067799" y="75.590935">26</tspan></text><text style="font-size:2.11667;font-family:Gadugi;letter-spacing:.0714375;word-spacing:-.463021;text-anchor:middle;stroke:#000;stroke-width:.264999" x="40.358261" y="75.590935"><tspan stroke-width=".265" x="40.393978" y="75.590935">07</tspan></text><text style="font-size:2.11667;font-family:Gadugi;letter-spacing:.0714375;word-spacing:-.463021;text-anchor:middle;stroke:#000;stroke-width:.264999" x="47.654144" y="75.544754"><tspan stroke-width=".265" x="47.689861" y="75.544754">23</tspan></text><text style="font-size:2.20814;font-family:Gadugi;letter-spacing:.0745245;word-spacing:-.483029;text-anchor:middle;stroke:#000;stroke-width:.27645" transform="scale(1.05107 .9514114)" x="63.807148" y="79.299934"><tspan stroke-width=".276451" x="63.84441" y="79.299934">SEGURO DE VIDA DEUDOR</tspan></text><text style="font-size:2.11667;font-family:Gadugi;letter-spacing:.0714375;word-spacing:-.463021;text-anchor:middle;stroke:#000;stroke-width:.264999" x="107.03713" y="75.498581"><tspan stroke-width=".265" x="107.07285" y="75.498581">0.00</tspan></text><text style="font-size:2.11667;font-family:Gadugi;letter-spacing:.0714375;word-spacing:-.463021;text-anchor:middle;stroke:#000;stroke-width:.264999" x="132.89597" y="75.683281"><tspan stroke-width=".265" x="132.93169" y="75.683281">$0.00</tspan></text><text style="font-size:2.11667;font-family:Gadugi;letter-spacing:.0714375;word-spacing:-.463021;text-anchor:middle;stroke:#000;stroke-width:.264999" x="156.67686" y="75.6371"><tspan stroke-width=".265" x="156.71259" y="75.6371">$4.415.00</tspan></text><text style="font-size:2.11667;font-family:Gadugi;letter-spacing:.0714375;word-spacing:-.463021;text-anchor:middle;stroke:#000;stroke-width:.264999" x="179.07246" y="75.590935"><tspan stroke-width=".265" x="179.10818" y="75.590935">$0.00</tspan></text><text style="font-size:2.11667;font-family:Gadugi;letter-spacing:.0714375;word-spacing:-.463021;text-anchor:middle;stroke:#000;stroke-width:.264999" x="186.8763" y="75.637108"><tspan stroke-width=".265" x="186.91202" y="75.637108">00</tspan></text><text style="font-size:2.11667;font-family:Gadugi;letter-spacing:.0714375;word-spacing:-.463021;text-anchor:middle;stroke:#000;stroke-width:.264999" x="192.92542" y="75.590935"><tspan stroke-width=".265" x="192.96114" y="75.590935">00</tspan></text><text style="font-size:2.11667;font-family:Gadugi;letter-spacing:.0714375;word-spacing:-.463021;text-anchor:middle;stroke:#000;stroke-width:.264999" x="198.88219" y="75.637108"><tspan stroke-width=".265" x="198.91791" y="75.637108">00</tspan></text><g font-family="Gadugi" stroke="#000" text-anchor="middle" transform="translate(0 4.155885)"><text font-size="2.11667" letter-spacing=".0714375" stroke-width=".264999" word-spacing="-.463021" x="19.301777" y="75.590919"><tspan stroke-width=".265" x="19.337496" y="75.590919">0710</tspan></text><text font-size="2.11667" letter-spacing=".0714375" stroke-width=".264999" word-spacing="-.463021" x="34.032082" y="75.590935"><tspan stroke-width=".265" x="34.067799" y="75.590935">26</tspan></text><text font-size="2.11667" letter-spacing=".0714375" stroke-width=".264999" word-spacing="-.463021" x="40.358261" y="75.590935"><tspan stroke-width=".265" x="40.393978" y="75.590935">07</tspan></text><text font-size="2.11667" letter-spacing=".0714375" stroke-width=".264999" word-spacing="-.463021" x="47.654144" y="75.544754"><tspan stroke-width=".265" x="47.689861" y="75.544754">23</tspan></text><text font-size="2.20814" letter-spacing=".0745245" stroke-width=".27645" transform="scale(1.05107 .9514114)" word-spacing="-.483029" x="63.807148" y="79.299934"><tspan stroke-width=".276451" x="63.84441" y="79.299934">SEGURO DE VIDA DEUDOR</tspan></text><g font-size="2.11667" letter-spacing=".0714375" stroke-width=".264999" word-spacing="-.463021"><text x="107.03713" y="75.498581"><tspan stroke-width=".265" x="107.07285" y="75.498581">0.00</tspan></text><text x="132.89597" y="75.683281"><tspan stroke-width=".265" x="132.93169" y="75.683281">$0.00</tspan></text><text x="156.67686" y="75.6371"><tspan stroke-width=".265" x="156.71259" y="75.6371">$4.415.00</tspan></text><text x="179.07246" y="75.590935"><tspan stroke-width=".265" x="179.10818" y="75.590935">$0.00</tspan></text><text x="186.8763" y="75.637108"><tspan stroke-width=".265" x="186.91202" y="75.637108">00</tspan></text><text x="192.92542" y="75.590935"><tspan stroke-width=".265" x="192.96114" y="75.590935">00</tspan></text><text x="198.88219" y="75.637108"><tspan stroke-width=".265" x="198.91791" y="75.637108">00</tspan></text></g></g><g font-family="Gadugi" stroke="#000" text-anchor="middle" transform="translate(0 8.31177)"><text font-size="2.11667" letter-spacing=".0714375" stroke-width=".264999" word-spacing="-.463021" x="19.301777" y="75.590919"><tspan stroke-width=".265" x="19.337496" y="75.590919">0710</tspan></text><text font-size="2.11667" letter-spacing=".0714375" stroke-width=".264999" word-spacing="-.463021" x="34.032082" y="75.590935"><tspan stroke-width=".265" x="34.067799" y="75.590935">26</tspan></text><text font-size="2.11667" letter-spacing=".0714375" stroke-width=".264999" word-spacing="-.463021" x="40.358261" y="75.590935"><tspan stroke-width=".265" x="40.393978" y="75.590935">07</tspan></text><text font-size="2.11667" letter-spacing=".0714375" stroke-width=".264999" word-spacing="-.463021" x="47.654144" y="75.544754"><tspan stroke-width=".265" x="47.689861" y="75.544754">23</tspan></text><text font-size="2.20814" letter-spacing=".0745245" stroke-width=".27645" transform="scale(1.05107 .9514114)" word-spacing="-.483029" x="63.807148" y="79.299934"><tspan stroke-width=".276451" x="63.84441" y="79.299934">SEGURO DE VIDA DEUDOR</tspan></text><g font-size="2.11667" letter-spacing=".0714375" stroke-width=".264999" word-spacing="-.463021"><text x="107.03713" y="75.498581"><tspan stroke-width=".265" x="107.07285" y="75.498581">0.00</tspan></text><text x="132.89597" y="75.683281"><tspan stroke-width=".265" x="132.93169" y="75.683281">$0.00</tspan></text><text x="156.67686" y="75.6371"><tspan stroke-width=".265" x="156.71259" y="75.6371">$4.415.00</tspan></text><text x="179.07246" y="75.590935"><tspan stroke-width=".265" x="179.10818" y="75.590935">$0.00</tspan></text><text x="186.8763" y="75.637108"><tspan stroke-width=".265" x="186.91202" y="75.637108">00</tspan></text><text x="192.92542" y="75.590935"><tspan stroke-width=".265" x="192.96114" y="75.590935">00</tspan></text><text x="198.88219" y="75.637108"><tspan stroke-width=".265" x="198.91791" y="75.637108">00</tspan></text></g></g><g font-family="Gadugi" stroke="#000" text-anchor="middle" transform="translate(0 12.421478)"><text font-size="2.11667" letter-spacing=".0714375" stroke-width=".264999" word-spacing="-.463021" x="19.301777" y="75.590919"><tspan stroke-width=".265" x="19.337496" y="75.590919">0710</tspan></text><text font-size="2.11667" letter-spacing=".0714375" stroke-width=".264999" word-spacing="-.463021" x="34.032082" y="75.590935"><tspan stroke-width=".265" x="34.067799" y="75.590935">26</tspan></text><text font-size="2.11667" letter-spacing=".0714375" stroke-width=".264999" word-spacing="-.463021" x="40.358261" y="75.590935"><tspan stroke-width=".265" x="40.393978" y="75.590935">07</tspan></text><text font-size="2.11667" letter-spacing=".0714375" stroke-width=".264999" word-spacing="-.463021" x="47.654144" y="75.544754"><tspan stroke-width=".265" x="47.689861" y="75.544754">23</tspan></text><text font-size="2.20814" letter-spacing=".0745245" stroke-width=".27645" transform="scale(1.05107 .9514114)" word-spacing="-.483029" x="63.807148" y="79.299934"><tspan stroke-width=".276451" x="63.84441" y="79.299934">SEGURO DE VIDA DEUDOR</tspan></text><g font-size="2.11667" letter-spacing=".0714375" stroke-width=".264999" word-spacing="-.463021"><text x="107.03713" y="75.498581"><tspan stroke-width=".265" x="107.07285" y="75.498581">0.00</tspan></text><text x="132.89597" y="75.683281"><tspan stroke-width=".265" x="132.93169" y="75.683281">$0.00</tspan></text><text x="156.67686" y="75.6371"><tspan stroke-width=".265" x="156.71259" y="75.6371">$4.415.00</tspan></text><text x="179.07246" y="75.590935"><tspan stroke-width=".265" x="179.10818" y="75.590935">$0.00</tspan></text><text x="186.8763" y="75.637108"><tspan stroke-width=".265" x="186.91202" y="75.637108">00</tspan></text><text x="192.92542" y="75.590935"><tspan stroke-width=".265" x="192.96114" y="75.590935">00</tspan></text><text x="198.88219" y="75.637108"><tspan stroke-width=".265" x="198.91791" y="75.637108">00</tspan></text></g></g><g font-family="Gadugi" stroke="#000" text-anchor="middle" transform="translate(0 16.623539)"><text font-size="2.11667" letter-spacing=".0714375" stroke-width=".264999" word-spacing="-.463021" x="19.301777" y="75.590919"><tspan stroke-width=".265" x="19.337496" y="75.590919">0710</tspan></text><text font-size="2.11667" letter-spacing=".0714375" stroke-width=".264999" word-spacing="-.463021" x="34.032082" y="75.590935"><tspan stroke-width=".265" x="34.067799" y="75.590935">26</tspan></text><text font-size="2.11667" letter-spacing=".0714375" stroke-width=".264999" word-spacing="-.463021" x="40.358261" y="75.590935"><tspan stroke-width=".265" x="40.393978" y="75.590935">07</tspan></text><text font-size="2.11667" letter-spacing=".0714375" stroke-width=".264999" word-spacing="-.463021" x="47.654144" y="75.544754"><tspan stroke-width=".265" x="47.689861" y="75.544754">23</tspan></text><text font-size="2.20814" letter-spacing=".0745245" stroke-width=".27645" transform="scale(1.05107 .9514114)" word-spacing="-.483029" x="63.807148" y="79.299934"><tspan stroke-width=".276451" x="63.84441" y="79.299934">SEGURO DE VIDA DEUDOR</tspan></text><g font-size="2.11667" letter-spacing=".0714375" stroke-width=".264999" word-spacing="-.463021"><text x="107.03713" y="75.498581"><tspan stroke-width=".265" x="107.07285" y="75.498581">0.00</tspan></text><text x="132.89597" y="75.683281"><tspan stroke-width=".265" x="132.93169" y="75.683281">$0.00</tspan></text><text x="156.67686" y="75.6371"><tspan stroke-width=".265" x="156.71259" y="75.6371">$4.415.00</tspan></text><text x="179.07246" y="75.590935"><tspan stroke-width=".265" x="179.10818" y="75.590935">$0.00</tspan></text><text x="186.8763" y="75.637108"><tspan stroke-width=".265" x="186.91202" y="75.637108">00</tspan></text><text x="192.92542" y="75.590935"><tspan stroke-width=".265" x="192.96114" y="75.590935">00</tspan></text><text x="198.88219" y="75.637108"><tspan stroke-width=".265" x="198.91791" y="75.637108">00</tspan></text></g></g><g font-family="Gadugi" stroke="#000" text-anchor="middle" transform="translate(0 20.271482)"><text font-size="2.11667" letter-spacing=".0714375" stroke-width=".264999" word-spacing="-.463021" x="19.301777" y="75.590919"><tspan stroke-width=".265" x="19.337496" y="75.590919">0710</tspan></text><text font-size="2.11667" letter-spacing=".0714375" stroke-width=".264999" word-spacing="-.463021" x="34.032082" y="75.590935"><tspan stroke-width=".265" x="34.067799" y="75.590935">26</tspan></text><text font-size="2.11667" letter-spacing=".0714375" stroke-width=".264999" word-spacing="-.463021" x="40.358261" y="75.590935"><tspan stroke-width=".265" x="40.393978" y="75.590935">07</tspan></text><text font-size="2.11667" letter-spacing=".0714375" stroke-width=".264999" word-spacing="-.463021" x="47.654144" y="75.544754"><tspan stroke-width=".265" x="47.689861" y="75.544754">23</tspan></text><text font-size="2.20814" letter-spacing=".0745245" stroke-width=".27645" transform="scale(1.05107 .9514114)" word-spacing="-.483029" x="63.807148" y="79.299934"><tspan stroke-width=".276451" x="63.84441" y="79.299934">SEGURO DE VIDA DEUDOR</tspan></text><g font-size="2.11667" letter-spacing=".0714375" stroke-width=".264999" word-spacing="-.463021"><text x="107.03713" y="75.498581"><tspan stroke-width=".265" x="107.07285" y="75.498581">0.00</tspan></text><text x="132.89597" y="75.683281"><tspan stroke-width=".265" x="132.93169" y="75.683281">$0.00</tspan></text><text x="156.67686" y="75.6371"><tspan stroke-width=".265" x="156.71259" y="75.6371">$4.415.00</tspan></text><text x="179.07246" y="75.590935"><tspan stroke-width=".265" x="179.10818" y="75.590935">$0.00</tspan></text><text x="186.8763" y="75.637108"><tspan stroke-width=".265" x="186.91202" y="75.637108">00</tspan></text><text x="192.92542" y="75.590935"><tspan stroke-width=".265" x="192.96114" y="75.590935">00</tspan></text><text x="198.88219" y="75.637108"><tspan stroke-width=".265" x="198.91791" y="75.637108">00</tspan></text></g></g><text style="font-size:7.35702;font-family:Gadugi;letter-spacing:.067718;word-spacing:-.438913;text-anchor:middle;fill:#d40000;stroke:#d40000;stroke-width:.251201" transform="scale(.94576918 1.0573404)" x="61.650604" y="18.392281"><tspan style="font-style:italic;font-weight:bold;font-size:7.35702;font-family:Sans;fill:#d40000;stroke:#d40000;stroke-width:.251202" x="61.684464" y="18.392281">Banco AV Villas</tspan></text><ellipse cx="10.092697" cy="23.732733" fill="#000080" rx="6.548393" ry="4.309641" stroke="#000080" stroke-width=".286268" transform="matrix(.89186961 -.45229261 .49360371 .86968694 0 0)"/><path d="m21.622146 18.505231.492506-1.393629.962779-1.833445.796959-1.261562.845819-1.093277s.603009-.651373 1.00773-.952794 1.018758-.623297 1.421681-.819478.97187-.391922.97187-.391922c-1.082909.126827-2.256178.544181-2.515445.728398-.259267.184216-.981226.626858-1.449745 1.000074s-.820512.69526-1.247555 1.230837-1.240422 2.004667-1.240422 2.004667-1.270695-.756554-1.994667-.97926-2.299748-.325226-2.299748-.325226 2.214019.906868 2.931699 1.63614c.717681.729272 1.316539 2.450477 1.316539 2.450477z" fill="#f9f9f9" stroke="#f9f9f9" stroke-width=".264999"/><path d="m21.195013 19.001629s-.945138.244252-1.570001.277059c-.624863.03281-1.324942.06413-1.789339-.138529-.464396-.202656-1.210904-.5532-1.512281-.946619-.301377-.393418-.254933-.852619-.126985-1.108235s.579632-.552264 1.108236-.646471c.528604-.09421 1.325163-.05606 1.881692.04618.55653.10224 1.177501.277059 1.177501.277059s-1.515834-.09329-2.147207.000004c-.631374.09329-1.055514.453764-.969706.981252.08581.527488.674203.865512 1.408383 1.108235s2.540197.150157 2.539707.150065z" fill="#f9f9f9" stroke="#f9f9f9" stroke-width=".264999"/><text style="font-size:7.64862;font-family:Arial;letter-spacing:.070402;word-spacing:-.456309;text-anchor:middle;fill:#d40000;stroke:#d40000;stroke-width:.261157" transform="scale(.95390143 1.0483263)" x="64.304222" y="217.69261"><tspan fill="#d40000" font-family="Arial" font-size="7.64862" stroke="#d40000" stroke-width=".261158" x="64.339424" y="217.69261">Banco AV Villas</tspan></text><g transform="translate(.718338 208.77507)"><ellipse cx="10.092697" cy="23.732733" fill="#000080" rx="6.548393" ry="4.309641" stroke="#000080" stroke-width=".286268" transform="matrix(.89186961 -.45229261 .49360371 .86968694 0 0)"/><g fill="#f9f9f9" stroke="#f9f9f9" stroke-width=".264999"><path d="m21.622146 18.505231.492506-1.393629.962779-1.833445.796959-1.261562.845819-1.093277s.603009-.651373 1.00773-.952794 1.018758-.623297 1.421681-.819478.97187-.391922.97187-.391922c-1.082909.126827-2.256178.544181-2.515445.728398-.259267.184216-.981226.626858-1.449745 1.000074s-.820512.69526-1.247555 1.230837-1.240422 2.004667-1.240422 2.004667-1.270695-.756554-1.994667-.97926-2.299748-.325226-2.299748-.325226 2.214019.906868 2.931699 1.63614c.717681.729272 1.316539 2.450477 1.316539 2.450477z"/><path d="m21.195013 19.001629s-.945138.244252-1.570001.277059c-.624863.03281-1.324942.06413-1.789339-.138529-.464396-.202656-1.210904-.5532-1.512281-.946619-.301377-.393418-.254933-.852619-.126985-1.108235s.579632-.552264 1.108236-.646471c.528604-.09421 1.325163-.05606 1.881692.04618.55653.10224 1.177501.277059 1.177501.277059s-1.515834-.09329-2.147207.000004c-.631374.09329-1.055514.453764-.969706.981252.08581.527488.674203.865512 1.408383 1.108235s2.540197.150157 2.539707.150065z"/></g></g><text style="font-size:1.41111;font-family:Arial;letter-spacing:.203729;word-spacing:0;text-anchor:middle;fill:#f9f9f9;stroke:#f9f9f9;stroke-width:.30206" transform="scale(.9834978 1.0167791)" x="13.316599" xml:space="preserve" y="152.79144"><tspan dx="0" style="font-size:1.41111;font-family:Arial;letter-spacing:.203729;word-spacing:0;text-anchor:start;fill:#000;stroke:#000;stroke-width:.1" x="13.316599" y="152.79144">Revisor Fiscal: KPMG S.A.S. PBX: (571) 618 81 00, Calle 90 No. 19 C 74, A.A. No.9122 de Bogotá D.C. Si desea dirigirse al Defensor del Consumidor Financiero del Banco AV Villas José Federico Ustáriz González, para atención </tspan><tspan style="font-size:1.41111;font-family:Arial;letter-spacing:.203729;word-spacing:0;text-anchor:start;fill:#000;stroke:#000;stroke-width:.1" x="13.316599" y="154.55533">Personalizada: En Bogotá en la Carrera 11 A No. 96 51 Oficina 203 en un horario de 8:00 a.m. a 6:00 p.m. de lunes a viernes. Atención telefónica: (601) 6108161 / 317 4382342 en los mismos horarios. A través de medios electrónicos: </tspan><tspan style="font-size:1.41111;font-family:Arial;letter-spacing:.203729;word-spacing:0;text-anchor:start;fill:#000;stroke:#000;stroke-width:.1" x="13.316599" y="156.31921">Radica tu queja directamente en la Defensoría del Consumidor Financiero, en un horario 24/7 a través de los siguientes medios: Correo Electrónico: defensoravvillas@ustarizabogados.com Página Web: https://ustarizabogados.com/, </tspan><tspan style="font-size:1.41111;font-family:Arial;letter-spacing:.203729;word-spacing:0;text-anchor:start;fill:#000;stroke:#000;stroke-width:.1" x="13.316599" y="158.0831">APP Defensoría: https://legalcrc.com/app-dcf/ </tspan></text><text style="font-size:1.75858;font-family:Arial;letter-spacing:.0899583;word-spacing:0;stroke:#000;stroke-width:.330252" transform="scale(1.0396449 .96186684)" x="13.24667" xml:space="preserve" y="175.69067"><tspan font-family="Arial" letter-spacing=".0899583" stroke-width=".1" word-spacing="0" x="13.24667" y="175.69067">SI EL VALOR DE SU PAGO ES: a) Igual o superior al Pago Mínimo: El pago se aplica a las cuotas facturadas. b) Igual o superior al Pago Mínimo Reducido y menor al Pago Mínimo:  Los saldos pendientes se</tspan><tspan font-family="Arial" letter-spacing=".0899583" stroke-width=".1" word-spacing="0" x="13.24667" y="177.8889">difieren a 36 cuotas por una única vez y el pago se aplica al nuevo plan de cuotas. Si el Pago Mínimo Reducido y el Pago Mínimo son iguales, se aplica como Pago Mínimo.  Información sobre el Pago Mínimo</tspan><tspan font-family="Arial" letter-spacing=".0899583" stroke-width=".1" word-spacing="0" x="13.24667" y="180.08713">Reducido en www.avvillas.com.co. El Banco reporta periódicamente el comportamiento de los créditos a las centrales de riesgo. Los consumos en moneda extranjera se convierten a dólares y éstos en pesos</tspan><tspan font-family="Arial" letter-spacing=".0899583" stroke-width=".1" word-spacing="0" x="13.24667" y="182.28535">colombianos, utilizando la tasa de conversión publicada en www.avvillas.com.co del día de la transacción. De incurrir en mora en su pago, se dará inicio a la gestión de cobranza  y el tarjetahabiente asumirá</tspan><tspan font-family="Arial" letter-spacing=".0899583" stroke-width=".1" word-spacing="0" x="13.24667" y="184.48357">los gastos correspondientes. </tspan></text></g></svg>